# xmcd
#
# Track frame offsets:
#	150
#	23865
#	37085
#	54578
#	109031
#	133926
#	162136
#	188414
#	207165
#	231549
#	261647
#	298846
#
# Disc length: 4260 seconds
#
# Revision: 1
# Processed by: cddbd v1.5.2PL0 Copyright (c) Steve Scherf et al.
# Submitted via: audiograbber 1.83.01
#
DISCID=b710a20c
DTITLE=Grateful Dead - 72-12-12 Winterland Arena, San Francisco CA
DYEAR=1900
DGENRE=
TTITLE0=BIODTL
TTITLE1=Brown Eyed Women
TTITLE2=Mexicali Blues
TTITLE3=Bird Song
TTITLE4=Jack Straw
TTITLE5=Cumberland Blues
TTITLE6=Box Of Rain
TTITLE7=El Paso
TTITLE8=Don't Ease Me In
TTITLE9=Me and Bobby McGee
TTITLE10=Tennessee Jed
TTITLE11=Around and Around
EXTD=
EXTT0=
EXTT1=
EXTT2=
EXTT3=
EXTT4=
EXTT5=
EXTT6=
EXTT7=
EXTT8=
EXTT9=
EXTT10=
EXTT11=
PLAYORDER=
